<svg width="260" height="260" viewBox="0 0 260 260" fill="none" xmlns="http://www.w3.org/2000/svg">
<path d="M129.993 67.6401C164.079 67.6401 191.705 95.2667 191.705 129.349C191.705 163.426 164.079 191.052 129.993 191.052C95.9148 191.052 68.2852 163.426 68.2852 129.349C68.2852 95.2662 95.9148 67.6401 129.993 67.6401Z" fill="#070707"/>
<path d="M129.993 0C113.798 0 98.343 3.11148 84.0374 8.54722C87.1625 11.7211 89.747 15.4154 91.7315 19.4674C103.744 15.2871 116.59 12.9076 130 12.9076C194.563 12.9076 247.082 65.444 247.082 129.993C247.082 194.542 194.563 247.089 129.993 247.089C65.4374 247.089 12.9147 194.548 12.9147 130C12.9147 108.254 18.9814 87.9504 29.3467 70.481C25.7943 67.7617 22.6621 64.5011 20.1536 60.786C7.45817 80.8529 0 104.545 0 130C0 201.68 58.3119 260.001 129.993 260.001C201.68 260.001 260 201.681 260 130C260 58.319 201.68 0 129.993 0Z" fill="#070707"/>
<path d="M54.517 12.1484C69.2319 12.1484 81.158 24.0745 81.158 38.7895C81.158 53.5044 69.2319 65.4305 54.517 65.4305C39.8056 65.4305 27.876 53.5044 27.876 38.7895C27.876 24.0745 39.8056 12.1484 54.517 12.1484Z" fill="#070707"/>
</svg>
