<svg width="884" height="260" viewBox="0 0 884 260" fill="none" xmlns="http://www.w3.org/2000/svg">
<path d="M129.993 67.6406C164.079 67.6406 191.705 95.2672 191.705 129.349C191.705 163.427 164.079 191.053 129.993 191.053C95.9148 191.053 68.2852 163.427 68.2852 129.349C68.2852 95.2667 95.9148 67.6406 129.993 67.6406Z" fill="#FCFAFA"/>
<path d="M129.993 0C113.798 0 98.343 3.11148 84.0374 8.54722C87.1625 11.7211 89.747 15.4154 91.7315 19.4674C103.744 15.2871 116.59 12.9076 130 12.9076C194.563 12.9076 247.082 65.444 247.082 129.993C247.082 194.542 194.563 247.089 129.993 247.089C65.4374 247.089 12.9147 194.548 12.9147 130C12.9147 108.254 18.9814 87.9504 29.3467 70.481C25.7943 67.7617 22.6621 64.5011 20.1536 60.786C7.45817 80.8529 0 104.545 0 130C0 201.68 58.3119 260.001 129.993 260.001C201.68 260.001 260 201.681 260 130C260 58.319 201.68 0 129.993 0Z" fill="#FCFAFA"/>
<path d="M54.517 12.1484C69.2319 12.1484 81.158 24.0745 81.158 38.7895C81.158 53.5044 69.2319 65.4305 54.517 65.4305C39.8056 65.4305 27.876 53.5044 27.876 38.7895C27.876 24.0745 39.8056 12.1484 54.517 12.1484Z" fill="#FCFAFA"/>
<path d="M386.9 193.6C378.233 193.6 370.267 192.067 363 189C355.733 185.867 349.867 181.233 345.4 175.1C341 168.967 338.7 161.3 338.5 152.1H357.1C357.1 157.633 358.433 162.167 361.1 165.7C363.833 169.233 367.433 171.867 371.9 173.6C376.367 175.267 381.3 176.1 386.7 176.1C392.167 176.1 397 175.267 401.2 173.6C405.4 171.933 408.633 169.7 410.9 166.9C413.233 164.1 414.4 160.9 414.4 157.3C414.4 152.433 412.9 148.533 409.9 145.6C406.9 142.6 402.333 140.067 396.2 138L372.5 129.2C362.3 125.4 354.533 121.033 349.2 116.1C343.867 111.1 341.2 104.167 341.2 95.3C341.2 85.2333 345.133 77.0667 353 70.8C360.867 64.4667 371.933 61.3 386.2 61.3C399.733 61.3 410.233 64.4333 417.7 70.7C425.233 76.9667 429.533 85.5 430.6 96.3H411.9C410.967 90.8333 408.4 86.5 404.2 83.3C400.067 80.1 394.067 78.5 386.2 78.5C378.6 78.5 372.667 80.1667 368.4 83.5C364.133 86.7667 362 90.9 362 95.9C362 100.033 363.333 103.333 366 105.8C368.733 108.267 372.967 110.5 378.7 112.5L405.7 122.4C414.967 125.667 422.2 130.067 427.4 135.6C432.6 141.133 435.2 148.167 435.2 156.7C435.2 163.9 433.333 170.267 429.6 175.8C425.867 181.333 420.4 185.7 413.2 188.9C406 192.033 397.233 193.6 386.9 193.6ZM493.033 193.6C487.566 193.6 482.633 192.567 478.233 190.5C473.833 188.433 470.333 185.333 467.733 181.2C465.199 177 463.933 171.733 463.933 165.4V68.6H482.833V164.8C482.833 173.867 487.066 178.4 495.533 178.4C498.133 178.4 500.666 178.133 503.133 177.6C505.599 177 508.399 176.133 511.533 175L514.233 188.5C510.699 189.967 507.199 191.167 503.733 192.1C500.333 193.1 496.766 193.6 493.033 193.6ZM449.233 107.7V94.8H511.333V107.7H449.233ZM593.191 191L590.791 168.9V128.8C590.791 120.933 589.157 115.233 585.891 111.7C582.624 108.1 577.457 106.3 570.391 106.3C566.391 106.3 562.824 106.9 559.691 108.1C556.624 109.233 554.191 110.967 552.391 113.3C550.657 115.633 549.791 118.567 549.791 122.1H528.791C528.791 115.033 530.524 109.3 533.991 104.9C537.457 100.5 542.291 97.3 548.491 95.3C554.757 93.2333 562.057 92.2 570.391 92.2C578.191 92.2 585.057 93.5 590.991 96.1C596.924 98.6333 601.524 102.633 604.791 108.1C608.124 113.567 609.791 120.633 609.791 129.3V191H593.191ZM560.991 193.6C552.924 193.6 546.224 192.2 540.891 189.4C535.557 186.533 531.557 182.8 528.891 178.2C526.291 173.6 524.991 168.7 524.991 163.5C524.991 157.167 526.591 151.967 529.791 147.9C533.057 143.767 537.557 140.7 543.291 138.7C549.024 136.7 555.624 135.7 563.091 135.7C568.224 135.7 573.224 136.167 578.091 137.1C582.957 138.033 587.757 139.267 592.491 140.8V152.3C588.624 150.9 584.324 149.8 579.591 149C574.924 148.133 570.557 147.7 566.491 147.7C560.424 147.7 555.357 148.9 551.291 151.3C547.224 153.7 545.191 157.767 545.191 163.5C545.191 167.7 546.791 171.333 549.991 174.4C553.191 177.4 558.257 178.9 565.191 178.9C570.257 178.9 574.724 177.767 578.591 175.5C582.457 173.167 585.457 170.267 587.591 166.8C589.724 163.333 590.791 159.867 590.791 156.4H595.391C595.391 163.067 594.024 169.233 591.291 174.9C588.624 180.5 584.724 185.033 579.591 188.5C574.457 191.9 568.257 193.6 560.991 193.6ZM686.277 193.6C680.01 193.6 674.31 191.933 669.177 188.6C664.11 185.2 660.043 180.2 656.977 173.6C653.977 167 652.477 158.9 652.477 149.3H658.977C658.977 154.9 660.177 159.733 662.577 163.8C665.043 167.867 668.177 171 671.977 173.2C675.777 175.333 679.743 176.4 683.877 176.4C688.81 176.4 693.243 175.033 697.177 172.3C701.177 169.567 704.343 165.667 706.677 160.6C709.077 155.467 710.277 149.433 710.277 142.5C710.277 135.633 709.11 129.733 706.777 124.8C704.443 119.8 701.277 115.967 697.277 113.3C693.277 110.567 688.743 109.2 683.677 109.2C679.41 109.2 675.377 110.233 671.577 112.3C667.843 114.367 664.81 117.433 662.477 121.5C660.143 125.5 658.977 130.4 658.977 136.2H652.477C652.477 126.8 653.943 118.833 656.877 112.3C659.81 105.767 663.877 100.8 669.077 97.4C674.343 93.9333 680.51 92.2 687.577 92.2C695.243 92.2 702.243 94.2667 708.577 98.4C714.977 102.467 720.077 108.267 723.877 115.8C727.743 123.333 729.677 132.233 729.677 142.5C729.677 152.833 727.71 161.833 723.777 169.5C719.843 177.1 714.577 183.033 707.977 187.3C701.443 191.5 694.21 193.6 686.277 193.6ZM639.977 191V54.3H658.977V167.9L652.877 191H639.977ZM754.289 191V54.3H773.289V191H754.289ZM790.997 94.8H812.297L841.297 174.4H837.397L860.697 94.8H880.097L843.597 209.5C840.264 219.9 835.964 227.667 830.697 232.8C825.497 238 818.964 240.6 811.097 240.6C806.697 240.6 802.464 240.033 798.397 238.9C794.397 237.767 790.297 236.1 786.097 233.9V216.8C789.697 219.333 793.164 221.167 796.497 222.3C799.83 223.433 803.297 224 806.897 224C810.497 224 813.564 222.9 816.097 220.7C818.697 218.567 820.864 215.7 822.597 212.1C824.397 208.567 825.93 204.7 827.197 200.5L830.097 191L790.997 94.8Z" fill="#FCFAFA"/>
</svg>
